<mxfile host="app.diagrams.net" agent="Mozilla/5.0 (Windows NT 10.0; Win64; x64) AppleWebKit/537.36 (KHTML, like Gecko) Chrome/131.0.0.0 Safari/537.36" version="25.0.3">
  <diagram name="Page-1" id="cOgU7hjmjJvWijCojQ1F">
    <mxGraphModel dx="1358" dy="549" grid="1" gridSize="10" guides="1" tooltips="1" connect="1" arrows="1" fold="1" page="1" pageScale="1" pageWidth="827" pageHeight="1169" math="0" shadow="0">
      <root>
        <mxCell id="0" />
        <mxCell id="1" parent="0" />
        <mxCell id="1qVqDtgRL5_yvvf13ffs-9" style="edgeStyle=orthogonalEdgeStyle;rounded=0;orthogonalLoop=1;jettySize=auto;html=1;entryX=0.5;entryY=1;entryDx=0;entryDy=0;" edge="1" parent="1" source="1qVqDtgRL5_yvvf13ffs-1" target="1qVqDtgRL5_yvvf13ffs-4">
          <mxGeometry relative="1" as="geometry" />
        </mxCell>
        <mxCell id="1qVqDtgRL5_yvvf13ffs-1" value="Membre Actif&lt;div&gt;(Centre)&lt;/div&gt;" style="ellipse;whiteSpace=wrap;html=1;" vertex="1" parent="1">
          <mxGeometry x="210" y="260" width="120" height="80" as="geometry" />
        </mxCell>
        <mxCell id="1qVqDtgRL5_yvvf13ffs-7" style="edgeStyle=orthogonalEdgeStyle;rounded=0;orthogonalLoop=1;jettySize=auto;html=1;entryX=0.5;entryY=0;entryDx=0;entryDy=0;" edge="1" parent="1" source="1qVqDtgRL5_yvvf13ffs-2" target="1qVqDtgRL5_yvvf13ffs-4">
          <mxGeometry relative="1" as="geometry" />
        </mxCell>
        <mxCell id="1qVqDtgRL5_yvvf13ffs-2" value="Membre Associé" style="ellipse;whiteSpace=wrap;html=1;" vertex="1" parent="1">
          <mxGeometry x="210" y="100" width="120" height="80" as="geometry" />
        </mxCell>
        <mxCell id="1qVqDtgRL5_yvvf13ffs-10" style="edgeStyle=orthogonalEdgeStyle;rounded=0;orthogonalLoop=1;jettySize=auto;html=1;entryX=0;entryY=0.5;entryDx=0;entryDy=0;" edge="1" parent="1" source="1qVqDtgRL5_yvvf13ffs-3" target="1qVqDtgRL5_yvvf13ffs-2">
          <mxGeometry relative="1" as="geometry" />
        </mxCell>
        <mxCell id="1qVqDtgRL5_yvvf13ffs-11" style="edgeStyle=orthogonalEdgeStyle;rounded=0;orthogonalLoop=1;jettySize=auto;html=1;exitX=1;exitY=0.5;exitDx=0;exitDy=0;entryX=0;entryY=0.5;entryDx=0;entryDy=0;" edge="1" parent="1" source="1qVqDtgRL5_yvvf13ffs-3" target="1qVqDtgRL5_yvvf13ffs-1">
          <mxGeometry relative="1" as="geometry" />
        </mxCell>
        <mxCell id="1qVqDtgRL5_yvvf13ffs-3" value="Friendly Pastor" style="ellipse;whiteSpace=wrap;html=1;" vertex="1" parent="1">
          <mxGeometry x="10" y="190" width="120" height="80" as="geometry" />
        </mxCell>
        <mxCell id="1qVqDtgRL5_yvvf13ffs-8" style="edgeStyle=orthogonalEdgeStyle;rounded=0;orthogonalLoop=1;jettySize=auto;html=1;entryX=0;entryY=0.5;entryDx=0;entryDy=0;" edge="1" parent="1" source="1qVqDtgRL5_yvvf13ffs-4" target="1qVqDtgRL5_yvvf13ffs-6">
          <mxGeometry relative="1" as="geometry" />
        </mxCell>
        <mxCell id="1qVqDtgRL5_yvvf13ffs-4" value="Cooperation Pastors&lt;div&gt;(MOU)&lt;/div&gt;" style="ellipse;whiteSpace=wrap;html=1;" vertex="1" parent="1">
          <mxGeometry x="400" y="190" width="120" height="80" as="geometry" />
        </mxCell>
        <mxCell id="1qVqDtgRL5_yvvf13ffs-6" value="Members of SCJ" style="ellipse;whiteSpace=wrap;html=1;" vertex="1" parent="1">
          <mxGeometry x="640" y="190" width="120" height="80" as="geometry" />
        </mxCell>
        <mxCell id="1qVqDtgRL5_yvvf13ffs-12" value="Outils ? deux outils&amp;nbsp;&lt;div&gt;- un pour les pasteurs&lt;/div&gt;&lt;div&gt;- un pour les membres de la DMD&lt;/div&gt;&lt;div&gt;&lt;br&gt;&lt;div&gt;Mannam ?&lt;/div&gt;&lt;div&gt;redirection ?&lt;/div&gt;&lt;/div&gt;" style="rounded=1;whiteSpace=wrap;html=1;align=left;" vertex="1" parent="1">
          <mxGeometry x="10" y="360" width="310" height="160" as="geometry" />
        </mxCell>
        <mxCell id="1qVqDtgRL5_yvvf13ffs-14" value="&lt;ul&gt;&lt;li&gt;&lt;font style=&quot;font-size: 16px;&quot;&gt;Pastor Gathering (acheter leur coeur)&lt;/font&gt;&lt;/li&gt;&lt;li&gt;&lt;font size=&quot;3&quot;&gt;Evenement à faire ensemble&lt;/font&gt;&lt;/li&gt;&lt;li&gt;&lt;font size=&quot;3&quot;&gt;Apprendre la parole&lt;/font&gt;&lt;/li&gt;&lt;/ul&gt;" style="text;strokeColor=none;fillColor=none;html=1;whiteSpace=wrap;verticalAlign=middle;overflow=hidden;" vertex="1" parent="1">
          <mxGeometry x="520" y="300" width="380" height="200" as="geometry" />
        </mxCell>
      </root>
    </mxGraphModel>
  </diagram>
</mxfile>
